<svg width="19" height="23" viewBox="0 0 19 23" fill="none" xmlns="http://www.w3.org/2000/svg">
<path d="M11.4167 1.91663H3.75004C3.24171 1.91663 2.7542 2.11856 2.39475 2.478C2.03531 2.83745 1.83337 3.32496 1.83337 3.83329V19.1666C1.83337 19.675 2.03531 20.1625 2.39475 20.5219C2.7542 20.8814 3.24171 21.0833 3.75004 21.0833H15.25C15.7584 21.0833 16.2459 20.8814 16.6053 20.5219C16.9648 20.1625 17.1667 19.675 17.1667 19.1666V7.66663M11.4167 1.91663L17.1667 7.66663M11.4167 1.91663V7.66663H17.1667M13.3334 12.4583H5.66671M13.3334 16.2916H5.66671M7.58337 8.62496H5.66671" stroke="#1445D8" stroke-width="2" stroke-linecap="round" stroke-linejoin="round"/>
</svg>
